<svg xmlns="http://www.w3.org/2000/svg" viewBox="0 0 120 120">
  <defs><linearGradient id="g" x1="0" y1="0" x2="1" y2="1"><stop offset="0" stop-color="#f0a35e"/><stop offset="1" stop-color="#d9643a"/></linearGradient></defs>
  <rect x="6" y="6" width="108" height="108" rx="24" fill="url(#g)"/>
  <g fill="#fffaf2">
    <rect x="20" y="20" width="24" height="24" rx="6"/><rect x="48" y="20" width="24" height="24" rx="6" opacity=".55"/><rect x="76" y="20" width="24" height="24" rx="6"/>
    <rect x="20" y="48" width="24" height="24" rx="6" opacity=".55"/><rect x="48" y="48" width="24" height="24" rx="6"/><rect x="76" y="48" width="24" height="24" rx="6" opacity=".55"/>
    <rect x="20" y="76" width="24" height="24" rx="6"/><rect x="48" y="76" width="24" height="24" rx="6" opacity=".55"/><rect x="76" y="76" width="24" height="24" rx="6"/>
  </g>
  <g fill="#b4482a" font-family="Nunito,Arial,sans-serif" font-weight="800" font-size="18" text-anchor="middle">
    <text x="32" y="39">5</text><text x="88" y="39">3</text><text x="60" y="67">9</text><text x="32" y="95">7</text><text x="88" y="95">1</text>
  </g>
</svg>
